# xmcd
#
# Track frame offsets:
#	150
#	15268
#	25382
#	36292
#	46281
#	59379
#	71162
#	80898
#	90631
#	104263
#	114571
#	128007
#	137597
#	146938
#	154548
#	164565
#	178045
#	190326
#	204537
#	215917
#	224151
#	233004
#	239740
#	248301
#	255577
#
# Disc length: 3519 seconds
#
# Revision: 0
# Processed by: cddbd v1.5.2PL0 Copyright (c) Steve Scherf et al.
# Submitted via: EZCDAudioConverter 6.0.5.1
#
DISCID=760dbd19
DTITLE=Artistes Country Variés - Sur La Route Du Country Vol.6
DYEAR=1900
DGENRE=Country
TTITLE0=Jean Germain - L'Amour À Minuit
TTITLE1=Jean Germain - Une Larme Sur Ta Joue
TTITLE2=Jean Germain - Je Me Sens Seul
TTITLE3=Jean Germain - Le Temps Des Vacances
TTITLE4=Jean Germain - Juste Pour Ta Fête
TTITLE5=Miche - Un Garçon De Mon Âge
TTITLE6=Miche - Va-T'en
TTITLE7=Miche - Loin De Vous
TTITLE8=Miche - Fais Dodo
TTITLE9=Miche - Je Rentre Chez Moi
TTITLE10=Roger Turgeon - Dans Tes Bras
TTITLE11=Roger Turgeon - Mon Pétard
TTITLE12=Roger Turgeon - Bercé Par L'Amour
TTITLE13=Roger Turgeon - Ma P'tite Mimi
TTITLE14=Roger Turgeon - Ma Crotte En Chocolat
TTITLE15=Jojo Simard - Festival Country
TTITLE16=Jojo Simard - Le Blues Du Clochard
TTITLE17=Jojo Simard - Oui Crois-Moi
TTITLE18=Jojo Simard - Rêver, Rêver
TTITLE19=Jojo Simard - C'est Le Grand Amour
TTITLE20=Gilles Ouest - La Fleur Sauvage
TTITLE21=Gilles Ouest - Cher Frère
TTITLE22=Gilles Ouest - Reviens Dans Mes Bras
TTITLE23=Gilles Ouest - Chu In Caboye
TTITLE24=Gilles Ouest - L'Amour, L'Amour
EXTD=
EXTT0=
EXTT1=
EXTT2=
EXTT3=
EXTT4=
EXTT5=
EXTT6=
EXTT7=
EXTT8=
EXTT9=
EXTT10=
EXTT11=
EXTT12=
EXTT13=
EXTT14=
EXTT15=
EXTT16=
EXTT17=
EXTT18=
EXTT19=
EXTT20=
EXTT21=
EXTT22=
EXTT23=
EXTT24=
PLAYORDER=
